<?xml version="1.0" encoding="UTF-8"?>
<svg version="1.1" xmlns="http://www.w3.org/2000/svg" width="2048" height="1536">
<path d="M0 0 C31.35 1.65 62.7 3.3 95 5 C95.03738281 13.8584375 95.07476563 22.716875 95.11328125 31.84375 C95.14741136 38.17252075 95.18340193 44.5012595 95.22207737 50.83000183 C95.271916 59.02597403 95.31738111 67.22189368 95.34643555 75.41796875 C95.36945555 81.90780428 95.402898 88.39748943 95.44870156 94.8872056 C95.47258011 98.3214479 95.4913439 101.75554177 95.49761391 105.18986511 C95.50724806 109.02979608 95.53530123 112.8691866 95.56762695 116.70898438 C95.56619186 117.83971375 95.56475677 118.97044312 95.5632782 120.13543701 C95.65861283 128.1522759 96.66789132 134.97564316 102.125 141.25 C102.64320313 141.87390625 103.16140625 142.4978125 103.6953125 143.140625 C111.74808641 149.6374392 120.46808766 149.58136502 130.36694336 149.53344727 C131.90868451 149.54051531 133.45041872 149.54926404 134.99214172 149.55955505 C139.15755142 149.5819598 143.32257956 149.57913035 147.48802638 149.57023358 C150.97447686 149.56510493 154.46085681 149.57243144 157.94730002 149.57970566 C166.17643718 149.59667637 174.40538878 149.59316744 182.63452148 149.57641602 C191.10470404 149.55949611 199.57437116 149.57533367 208.04449743 149.6076389 C215.33568395 149.63438702 222.62671053 149.64159678 229.91794115 149.63312382 C234.26435418 149.62820995 238.61045723 149.63032629 242.95683098 149.65091133 C247.04552475 149.66935099 251.13348072 149.6632098 255.22213554 149.63871193 C256.71600482 149.63373019 258.20993113 149.63712481 259.70375443 149.64986038 C268.34496315 149.7176603 275.7846618 149.26590237 283 144 C290.71269251 136.0518863 292.44748842 127.53832625 292.43237305 116.81054688 C292.44766052 115.1701947 292.44766052 115.1701947 292.46325684 113.4967041 C292.49330423 109.90400005 292.50264042 106.31156302 292.51171875 102.71875 C292.5285715 100.21910725 292.54672254 97.71947295 292.56611633 95.21984863 C292.60871585 89.32691717 292.63828055 83.43403456 292.66143972 77.54099703 C292.69122182 70.16786527 292.74140444 62.79489538 292.79101562 55.421875 C292.87698181 42.28131419 292.94492403 29.14072474 293 16 C305.23534641 15.88537358 317.38570866 16.2021949 329.6015625 16.875 C331.11220071 16.95485573 332.6228617 17.03428172 334.13354492 17.11328125 C339.63097173 17.40369238 345.12796287 17.70230412 350.625 18 C369.125625 18.99 369.125625 18.99 388 20 C388 61.58 388 103.16 388 146 C428.40924109 145.938629 468.81839838 145.86660733 509.22756997 145.77101372 C513.99660238 145.75974535 518.76563507 145.74860693 523.53466797 145.73754883 C524.4841096 145.73534514 525.43355124 145.73314146 526.41176383 145.730871 C541.79156835 145.695484 557.17137282 145.67062779 572.55120297 145.64965298 C588.3284977 145.6279021 604.10573954 145.59485846 619.88298929 145.55129844 C629.62095385 145.52476944 639.35885248 145.50708327 649.09685139 145.50065396 C655.77160521 145.4954039 662.446276 145.47919978 669.12098534 145.45433434 C672.97382612 145.44030624 676.82651823 145.4311534 680.67938614 145.43499184 C684.85507025 145.43902578 689.03033149 145.42001666 693.20596313 145.39872742 C694.42580764 145.40357499 695.64565215 145.40842257 696.90246165 145.41341704 C704.87947471 145.37699809 704.87947471 145.37699809 712 142 C716.06935987 137.60069203 717.37030288 134.17337064 717.28125 128.12890625 C716.77923872 124.32895974 715.25351796 122.10620043 713 119 C707.61909003 114.96431752 702.12462785 114.77735645 695.59176636 114.39967346 C694.30712043 114.32087925 694.30712043 114.32087925 692.99652207 114.24049324 C690.12142073 114.06504653 687.24602624 113.89497856 684.37060547 113.72485352 C682.31055704 113.60020972 680.25052942 113.47522165 678.19052124 113.34991455 C673.74904608 113.08042835 669.30743924 112.81326668 664.86571884 112.54785347 C657.82836209 112.12720047 650.79136992 111.7006585 643.75442505 111.2731781 C626.2626125 110.21151949 608.77031779 109.15788067 591.2779541 108.10534668 C577.70705755 107.28866803 564.13629676 106.46984991 550.56589806 105.64493507 C543.58644661 105.22090788 536.60675763 104.80111924 529.6268518 104.38464177 C525.25768243 104.12300871 520.88875018 103.85756739 516.51987076 103.59114075 C514.51182748 103.46944342 512.5036912 103.34926833 510.49545288 103.23083305 C501.02714627 102.67167384 491.58004087 102.04034396 482.14822388 101.02549744 C481.43739556 100.95075748 480.72656725 100.87601752 479.99419868 100.79901272 C451.29318808 97.52051735 423.94906991 82.57833952 406 60 C398.78388096 49.68243254 389 34.19859018 389 21 C401.65321892 20.89320334 414.22757236 21.17747374 426.86254883 21.83862305 C428.66911226 21.92954252 430.47569741 22.02003129 432.2823019 22.11013126 C436.14934823 22.30388874 440.0162284 22.50059817 443.88300323 22.6996994 C450.09141502 23.01932444 456.30016686 23.33198621 462.50897217 23.64385986 C471.36493927 24.08937411 480.2207503 24.53787356 489.07644653 24.98873901 C510.80814542 26.09505621 532.54037881 27.1907667 554.27282214 28.28235555 C557.67389841 28.45322666 561.07496442 28.62430093 564.47603035 28.79537773 C591.03543744 30.13038853 617.59555489 31.42856097 644.16346192 32.58317542 C646.18239048 32.67097331 648.20130037 32.75918918 650.22020531 32.84752846 C661.98051007 33.36146048 673.74101653 33.86718881 685.50316429 34.33721352 C689.55708419 34.50117021 693.61060121 34.67384722 697.66407013 34.84856415 C700.29197213 34.95858734 702.92011081 35.05624719 705.54852295 35.15313721 C735.56470527 36.38776489 760.06898484 46.1368672 781.265625 67.90234375 C802.42591944 91.19221263 806.23388283 120.71046147 805 151 C803.52815678 171.37827374 796.23430384 190.33713319 783 206 C782.34386719 206.80179688 781.68773437 207.60359375 781.01171875 208.4296875 C766.38920989 225.59175457 745.33008315 236.81019532 723 240 C720.99574945 240.08546904 718.98911372 240.12379137 716.98304176 240.12304783 C715.19904077 240.1260344 715.19904077 240.1260344 713.37899935 240.12908131 C712.08133588 240.12616847 710.7836724 240.12325563 709.44668579 240.12025452 C708.04732474 240.12069076 706.64796376 240.12156665 705.24860322 240.12284368 C701.4084169 240.12507815 697.56825851 240.12108168 693.72807574 240.11606562 C689.58499322 240.11174628 685.44191227 240.1132086 681.29882812 240.1139679 C674.12234753 240.11449219 666.94587604 240.11135526 659.76939774 240.10573006 C649.39342083 240.09760226 639.01744832 240.09499852 628.64146857 240.09374207 C611.80703775 240.09155356 594.97261178 240.08489893 578.13818359 240.07543945 C561.78531926 240.06626013 545.43245624 240.05918184 529.07958984 240.05493164 C528.07156168 240.05466892 527.06353352 240.05440619 526.02495904 240.05413551 C520.96796677 240.05283047 515.91097449 240.05156676 510.85398221 240.05032361 C468.9026505 240.03995727 426.95132776 240.02152233 385 240 C384.67 218.55 384.34 197.1 384 175 C382.02 179.95 380.04 184.9 378 190 C365.64837325 212.82365813 346.20582712 229.47305339 321.38340855 237.11315155 C309.3517596 240.3736615 297.70316182 240.5687753 285.30249023 240.51757812 C283.06980943 240.52301073 280.83713222 240.53013973 278.60446167 240.53881836 C272.59003215 240.55691806 266.57587977 240.55003997 260.56144595 240.53730202 C254.23887867 240.52710596 247.91633357 240.53658579 241.59376526 240.54284668 C230.3036626 240.55056693 219.01369939 240.53821377 207.72362465 240.51780933 C197.51987092 240.49993815 187.31629929 240.50305157 177.11254883 240.52148438 C165.21586015 240.54296587 153.31928173 240.55081889 141.42256695 240.53903532 C135.14231282 240.53282837 128.86218368 240.5318874 122.58193779 240.54518127 C116.67605472 240.55681181 110.77051257 240.54858324 104.86466599 240.52560425 C102.70893861 240.52035569 100.55318209 240.52176404 98.39746666 240.53065491 C71.08918275 240.63282288 47.34804274 233.13832678 27 214 C15.11691386 201.1837869 6.36343428 185.95615253 2 169 C1.6596875 169.99257813 1.319375 170.98515625 0.96875 172.0078125 C-8.53002042 198.94213339 -25.66237082 219.73944444 -51.5 232.3125 C-61.92220008 236.91052945 -72.88337897 240.12638684 -84.29947376 240.12304783 C-85.3920635 240.1247786 -85.3920635 240.1247786 -86.50672576 240.12654433 C-88.95444267 240.12919722 -91.40209418 240.12469974 -93.84980774 240.12025452 C-95.61953773 240.12069049 -97.38926766 240.12156588 -99.15899724 240.12284368 C-104.0275823 240.12508352 -108.89614544 240.12107431 -113.76472771 240.11606562 C-119.01281428 240.11175401 -124.26089958 240.11320805 -129.50898743 240.1139679 C-138.60349636 240.11449268 -147.69799813 240.11135064 -156.79250526 240.10573006 C-169.94169615 240.09760889 -183.09088356 240.0949992 -196.24007668 240.09374207 C-217.57289488 240.09155252 -238.90570926 240.08489506 -260.23852539 240.07543945 C-280.96346009 240.06626282 -301.68839376 240.05919468 -322.41333008 240.05493164 C-323.70348139 240.05466364 -324.99363269 240.05439565 -326.32287949 240.05411953 C-336.41245506 240.05204015 -346.50203066 240.05008321 -356.59160626 240.04816496 C-406.06107435 240.03872839 -455.53053287 240.01861076 -505 240 C-505 164.43 -505 88.86 -505 11 C-489.24971451 11 -489.24971451 11 -482.87763596 11.41049576 C-482.16957654 11.45488346 -481.46151713 11.49927117 -480.73200136 11.54500395 C-478.40720434 11.69181981 -476.08286891 11.84491854 -473.75848389 11.99810791 C-472.05571094 12.10700132 -470.35291321 12.21550769 -468.65009332 12.32366443 C-464.00735664 12.61971243 -459.36499881 12.92136029 -454.72268939 13.22402453 C-449.70161841 13.55041362 -444.68021527 13.87161967 -439.65885925 14.19358826 C-428.69775594 14.89745527 -417.73710109 15.60813749 -406.7765379 16.32035923 C-399.92490107 16.7655756 -393.07317953 17.20947849 -386.22144318 17.6531601 C-367.22649486 18.88343607 -348.23166269 20.11547488 -329.23723984 21.35383987 C-328.0236362 21.43295913 -326.81003256 21.51207838 -325.55965306 21.59359519 C-324.34327121 21.67289695 -323.12688936 21.75219871 -321.87364745 21.83390355 C-319.40909199 21.99457805 -316.94453633 22.15524952 -314.47998047 22.31591797 C-313.25749518 22.39561533 -312.03500989 22.47531268 -310.77547958 22.55742511 C-290.96604445 23.84852188 -271.15581854 25.12703097 -251.3452197 26.40013483 C-230.97439292 27.70942507 -210.60427556 29.0293199 -190.2348187 30.35975623 C-178.81069397 31.10567808 -167.38631756 31.84710023 -155.96114349 32.57678986 C-146.23395695 33.19808313 -136.50746176 33.82910557 -126.78171626 34.47257885 C-121.82600941 34.80017012 -116.87012398 35.12332344 -111.91332817 35.43404198 C-107.36374276 35.71934617 -102.81522092 36.01795114 -98.26715961 36.32657382 C-96.6336701 36.43517236 -94.99986466 36.5391549 -93.36573705 36.637687 C-84.90071048 37.15085935 -76.70763804 38.07452076 -68.41409683 39.89100266 C-67.69407403 40.04852098 -66.97405122 40.2060393 -66.23220955 40.36833091 C-44.0191521 45.57291018 -23.83775906 60.23889429 -11 79 C-7.23431185 85.35172744 -3.3409316 91.97720521 -1 99 C-0.67 66.33 -0.34 33.66 0 0 Z M-407 31 C-407 68.95 -407 106.9 -407 146 C-367.26181233 146.11022558 -327.52376882 146.20254695 -287.78547204 146.25532665 C-283.09412301 146.26158019 -278.40277432 146.2680518 -273.71142578 146.2746582 C-272.77746184 146.27596976 -271.8434979 146.27728131 -270.88123202 146.2786326 C-255.75814744 146.30038979 -240.63515788 146.33981305 -225.51212966 146.38576398 C-209.99476668 146.43251989 -194.47745346 146.46029357 -178.96002293 146.47044247 C-169.38471778 146.47730343 -159.80968122 146.49897381 -150.23445874 146.53958233 C-143.66856477 146.56601001 -137.10280967 146.57400094 -130.53686637 146.56750689 C-126.74844256 146.56430401 -122.96048812 146.56921708 -119.17214775 146.59602737 C-115.06270064 146.62489745 -110.95425207 146.61493529 -106.84472656 146.60127258 C-105.65016248 146.61583679 -104.45559839 146.630401 -103.2248354 146.64540654 C-96.21749014 146.58234575 -91.37361841 145.69021116 -86 141 C-82.8429269 137.2318805 -81.70264035 132.89291782 -82 128 C-83.62070146 122.71593783 -86.25779582 118.93565021 -91 116 C-95.80415129 114.07053697 -100.41478335 113.56299953 -105.53485107 113.27941895 C-106.80368429 113.1993431 -106.80368429 113.1993431 -108.09815049 113.11764956 C-110.92536916 112.94117718 -113.75314254 112.77628472 -116.58105469 112.61132812 C-118.61186509 112.48691059 -120.64263101 112.36176503 -122.6733551 112.23594666 C-127.04534896 111.9666166 -131.41761129 111.70239802 -135.7901535 111.44212341 C-142.7187093 111.02962511 -149.64652441 110.60551002 -156.57427979 110.17980957 C-168.79816368 109.43017173 -181.02263616 108.69050972 -193.24725342 107.95294189 C-211.60619433 106.84512401 -229.96460947 105.72867408 -248.32254148 104.60426474 C-255.19323952 104.18379982 -262.06420699 103.76816324 -268.93543863 103.35651398 C-273.23576892 103.09805388 -277.53586807 102.8358885 -281.83592033 102.57284737 C-283.81171393 102.45276226 -285.78760072 102.33419803 -287.76358986 102.2173748 C-297.13920606 101.66237421 -306.49302431 101.0311007 -315.83258057 100.02648926 C-316.54456281 99.95168949 -317.25654506 99.87688972 -317.99010253 99.79982328 C-344.82235949 96.73881048 -371.08854538 83.31325436 -388.76171875 62.86328125 C-396.40249426 53.08895586 -401.32131648 42.38967019 -406 31 C-406.33 31 -406.66 31 -407 31 Z " fill="#000000" transform="translate(981,709)"/>
<path d="M0 0 C1.26542395 -0.00085442 2.5308479 -0.00170885 3.83461803 -0.00258917 C7.32598022 -0.00481352 10.81731144 -0.00084119 14.30866969 0.0041889 C18.08155285 0.00852293 21.85443438 0.00704488 25.62731934 0.00628662 C32.15713474 0.00576326 38.68694012 0.00889048 45.21675301 0.01452446 C54.65766927 0.02266484 64.09858071 0.02525728 73.53950011 0.02651245 C88.85819955 0.02869898 104.17689366 0.03534826 119.49559021 0.04481506 C134.37286858 0.0539995 149.25014551 0.06107529 164.12742615 0.06532288 C165.50387134 0.06571696 165.50387134 0.06571696 166.9081235 0.06611901 C171.51178173 0.06742408 176.11543997 0.06868778 180.71909821 0.06993091 C218.88768297 0.0802911 257.05625785 0.09872272 295.22483826 0.12025452 C295.22483826 31.47025452 295.22483826 62.82025452 295.22483826 95.12025452 C86.00483826 95.12025452 -123.21516174 95.12025452 -338.77516174 95.12025452 C-337.85387603 91.43511165 -337.01865309 89.66780531 -334.97828674 86.58900452 C-334.05644592 85.18835754 -334.05644592 85.18835754 -333.11598206 83.75941467 C-332.42601135 82.72349182 -331.73604065 81.68756897 -331.02516174 80.62025452 C-330.28860941 79.50522032 -329.55262734 78.38980926 -328.81715393 77.27406311 C-327.12908613 74.71525396 -325.43752726 72.15879343 -323.74391174 69.60365295 C-318.45549565 61.62201203 -313.19364569 53.62280301 -307.9254303 45.62782288 C-306.074757 42.82048689 -304.22255897 40.01416328 -302.36988831 37.20814514 C-301.76886292 36.29733185 -301.16783752 35.38651855 -300.54859924 34.44810486 C-299.44464009 32.77516592 -298.34021765 31.1025325 -297.23512268 29.43034363 C-296.70982971 28.6340152 -296.18453674 27.83768677 -295.64332581 27.01722717 C-295.03059311 26.1633844 -294.41786041 25.30954163 -293.78656006 24.42982483 C-292.05808008 21.58577053 -291.01529784 19.16223111 -289.87960815 16.07044983 C-287.28593555 9.88703368 -284.48729567 4.86669038 -278.77516174 1.12025452 C-266.66350864 -2.41292527 -253.38141689 -1.27155882 -240.90787482 -0.90762424 C-235.87025948 -0.78192952 -230.83236793 -0.77079957 -225.79342651 -0.74711609 C-216.26828346 -0.68513965 -206.74777381 -0.52130316 -197.22466451 -0.3201263 C-186.37637572 -0.09596876 -175.52785626 0.01353377 -164.67782533 0.11378241 C-142.37378263 0.32241021 -120.07608568 0.68890844 -97.77516174 1.12025452 C-97.44516174 22.24025452 -97.11516174 43.36025452 -96.77516174 65.12025452 C-94.46516174 59.84025452 -92.15516174 54.56025452 -89.77516174 49.12025452 C-76.56635027 27.10556872 -56.45073141 10.21491469 -31.45484924 3.18666077 C-20.91499973 0.63117521 -10.80306924 -0.02684501 0 0 Z " fill="#000000" transform="translate(671.7751617431641,611.8797454833984)"/>
<path d="M0 0 C1.3691429 -0.00087472 2.73828547 -0.00263056 4.10742629 -0.00517833 C7.82695724 -0.00960368 11.54637076 -0.00171543 15.26588678 0.00837779 C19.29294455 0.01708031 23.31999662 0.01408736 27.34706116 0.01257324 C34.3100578 0.01152866 41.27301672 0.01776042 48.23600388 0.02904892 C58.30309258 0.04535914 68.3701632 0.05051756 78.43726368 0.0530249 C94.77366665 0.05739337 111.11004956 0.07067938 127.44644165 0.08963013 C143.30809428 0.10801093 159.16974145 0.12215665 175.03140259 0.13064575 C176.010446 0.1311712 176.98948942 0.13169665 177.99820082 0.13223802 C182.91017135 0.13484824 187.82214191 0.13737562 192.7341125 0.13986182 C233.43153431 0.1605679 274.12891898 0.19742336 314.82632446 0.24050903 C314.82632446 31.59050903 314.82632446 62.94050903 314.82632446 95.24050903 C145.86632446 95.24050903 -23.09367554 95.24050903 -197.17367554 95.24050903 C-197.17367554 64.22050903 -197.17367554 33.20050903 -197.17367554 1.24050903 C-165.82367554 1.24050903 -134.47367554 1.24050903 -102.17367554 1.24050903 C-101.84367554 26.32050903 -101.51367554 51.40050903 -101.17367554 77.24050903 C-99.85367554 72.62050903 -98.53367554 68.00050903 -97.17367554 63.24050903 C-88.74735151 39.1008709 -70.79238991 20.36308715 -48.09945679 9.02957153 C-32.84673251 1.82891121 -16.72762013 -0.07863027 0 0 Z " fill="#000000" transform="translate(1471.1736755371094,611.7594909667969)"/>
<path d="M0 0 C1.73582562 0.13555083 3.47210388 0.26540185 5.20874023 0.39013672 C9.20136737 0.6814851 13.19095884 0.99929411 17.18066406 1.328125 C25.49600384 1.99038507 33.8205751 2.46544587 42.1484375 2.9375 C43.3036172 3.00317987 43.3036172 3.00317987 44.48213387 3.07018661 C47.60312178 3.24750496 50.7241308 3.42443884 53.84519291 3.6004467 C62.19087603 4.07182432 70.53492315 4.56988102 78.87890625 5.0703125 C80.25006996 5.15236452 81.62123488 5.23439643 82.99240112 5.31640625 C86.09911694 5.50233573 89.20581716 5.68852049 92.3125 5.875 C90.89718728 9.52400516 89.30924688 12.66316176 87.1796875 15.953125 C86.54635498 16.93667969 85.91302246 17.92023437 85.26049805 18.93359375 C84.57640869 19.98675781 83.89231934 21.03992188 83.1875 22.125 C82.10434109 23.8043085 81.02118899 25.48362145 79.9384613 27.16320801 C78.81356839 28.90713632 77.68688913 30.64990133 76.56005859 32.39257812 C73.01912624 37.87331563 69.51238965 43.37594931 66 48.875 C61.1962198 56.38544359 56.37419732 63.88343185 51.52294922 71.36328125 C44.73735771 81.83576922 38.03356396 92.36104579 31.3125 102.875 C15.729718 127.25159535 15.729718 127.25159535 8.52294922 138.36328125 C1.73735771 148.83576922 -4.96643604 159.36104579 -11.6875 169.875 C-27.58704756 194.74712085 -27.58704756 194.74712085 -34.58911133 205.52807617 C-39.11422895 212.50746593 -43.56441709 219.5345788 -48.00634766 226.56713867 C-48.57144043 227.45892822 -49.1365332 228.35071777 -49.71875 229.26953125 C-50.21955078 230.06206299 -50.72035156 230.85459473 -51.23632812 231.67114258 C-51.71521484 232.39841553 -52.19410156 233.12568848 -52.6875 233.875 C-53.11337811 234.57053356 -53.53925623 235.26606712 -53.97803974 235.98267746 C-55.6875 237.875 -55.6875 237.875 -57.88387585 238.36719131 C-58.7439087 238.36350414 -59.60394156 238.35981697 -60.49003601 238.35601807 C-61.97290604 238.36426605 -61.97290604 238.36426605 -63.48573303 238.37268066 C-65.1106089 238.35110901 -65.1106089 238.35110901 -66.76831055 238.32910156 C-67.90991638 238.32968567 -69.05152222 238.33026978 -70.22772217 238.33087158 C-74.01019443 238.32807952 -77.79188374 238.29693297 -81.57421875 238.265625 C-84.1930956 238.25816665 -86.81197801 238.2524718 -89.43086243 238.24847412 C-95.62515067 238.23603786 -101.81915678 238.20320781 -108.01332074 238.16307616 C-115.06521142 238.11837839 -122.11711551 238.09637649 -129.16911256 238.07629442 C-143.6753873 238.03447551 -158.1814397 237.96411103 -172.6875 237.875 C-171.44196695 234.53487853 -170.03957775 231.65985755 -168.04882812 228.70581055 C-167.52067505 227.91695969 -166.99252197 227.12810883 -166.44836426 226.31535339 C-165.87759155 225.47265396 -165.30681885 224.62995453 -164.71875 223.76171875 C-163.82633606 222.43090019 -163.82633606 222.43090019 -162.91589355 221.07319641 C-161.01079933 218.23333252 -159.09961979 215.39763725 -157.1875 212.5625 C-154.69467454 208.86024258 -152.20490427 205.15595944 -149.71875 201.44921875 C-149.10956223 200.54100372 -148.50037445 199.6327887 -147.87272644 198.697052 C-143.8636032 192.69659751 -139.98332418 186.63094703 -136.19013977 180.49229431 C-132.33227376 174.26062512 -128.28068259 168.16769941 -124.19235229 162.08554077 C-121.80416449 158.5313362 -119.42572574 154.97061421 -117.046875 151.41015625 C-116.53797226 150.64866776 -116.02906952 149.88717926 -115.50474548 149.10261536 C-109.17072603 139.61617785 -102.89798849 130.08935576 -96.625 120.5625 C-96.01618988 119.63804077 -95.40737976 118.71358154 -94.78012085 117.7611084 C-91.66133466 113.02515674 -88.54314494 108.28881282 -85.42529297 103.55224609 C-81.75547755 97.97759044 -78.0832449 92.40453061 -74.41015625 86.83203125 C-73.81276138 85.9257045 -73.21536652 85.01937775 -72.59986877 84.08558655 C-70.19973158 80.4443951 -67.79948334 76.80327689 -65.39907837 73.16226196 C-59.15772444 63.6951619 -52.91789883 54.22707243 -46.68621826 44.75360107 C-44.03414055 40.72213236 -41.38100202 36.69136231 -38.7277832 32.66064453 C-37.46765057 30.74562844 -36.20803336 28.83027308 -34.94897461 26.91455078 C-34.35157471 26.00560059 -33.7541748 25.09665039 -33.13867188 24.16015625 C-32.56165024 23.28110626 -31.9846286 22.40205627 -31.39012146 21.49636841 C-30.27839296 19.81272595 -29.15889111 18.13418518 -28.03089905 16.46139526 C-25.80785844 13.16135695 -23.73169926 9.96075758 -21.90600586 6.41845703 C-16.97597783 -2.78823151 -9.14095716 -0.91876383 0 0 Z " fill="#000000" transform="translate(345.6875,711.125)"/>
<path d="M0 0 C31.35 0 62.7 0 95 0 C95 31.02 95 62.04 95 94 C63.65 94 32.3 94 0 94 C0 62.98 0 31.96 0 0 Z " fill="#000000" transform="translate(981,613)"/>
<path d="M0 0 C8.49128585 8.32622846 12.8239056 18.92203053 13.30859375 30.7734375 C12.81797215 43.1534558 8.05966634 54.00528857 -0.87890625 62.5234375 C-11.10055438 70.97595423 -22.33503899 72.533836 -35.19140625 71.7734375 C-45.67034143 70.03919577 -54.66038185 64.4332136 -61.43359375 56.34375 C-68.35560131 46.22223673 -70.91995043 34.13751936 -68.6953125 22.0859375 C-66.40472872 13.80360067 -62.70261595 6.49059723 -56.19140625 0.7734375 C-54.92296875 -0.4640625 -54.92296875 -0.4640625 -53.62890625 -1.7265625 C-38.14776404 -14.40024369 -14.96326789 -12.25681403 0 0 Z M-53.91015625 9.87890625 C-59.98881984 18.53504238 -62.3510661 26.13423263 -61.19140625 36.7734375 C-59.22251016 46.39477638 -53.79629479 53.87866671 -45.74609375 59.47265625 C-37.22592335 64.37948706 -27.99696744 65.31677515 -18.33203125 63.125 C-8.65350558 59.60826862 -2.06072303 52.6951791 2.80859375 43.7734375 C5.97432741 36.14689733 6.04435784 27.25942038 3.18359375 19.5234375 C-1.45325892 9.44191811 -8.18288896 2.8664476 -18.62890625 -1.1015625 C-31.51072279 -4.82992188 -45.39102136 -0.557034 -53.91015625 9.87890625 Z " fill="#000000" transform="translate(1880.19140625,625.2265625)"/>
<path d="M0 0 C4.16625 -0.0825 8.3325 -0.165 12.625 -0.25 C13.92775879 -0.28641602 15.23051758 -0.32283203 16.57275391 -0.36035156 C27.29589231 -0.46328307 27.29589231 -0.46328307 32 4 C34.83272271 8.24908406 34.76806539 12.01145405 34 17 C31.96909061 20.97281478 28.99229232 23.15740354 25 25 C25.86625 25.94875 26.7325 26.8975 27.625 27.875 C37 38.79017857 37 38.79017857 37 44 C33.7 44 30.4 44 27 44 C26.45730469 43.02417969 25.91460938 42.04835938 25.35546875 41.04296875 C24.6330725 39.75766633 23.91040182 38.47251813 23.1875 37.1875 C22.83107422 36.54490234 22.47464844 35.90230469 22.10742188 35.24023438 C19.68594621 30.55031051 19.68594621 30.55031051 16 27 C13.36 26.67 10.72 26.34 8 26 C8 31.94 8 37.88 8 44 C5.36 44 2.72 44 0 44 C0 29.48 0 14.96 0 0 Z M8 7 C8 10.96 8 14.92 8 19 C16.22033396 19.33110528 16.22033396 19.33110528 24 17 C26.28138945 14.24301816 26.28138945 14.24301816 25.8125 11.4375 C25.16627558 8.66744883 25.16627558 8.66744883 22 7 C18.56692835 6.75729175 18.56692835 6.75729175 14.8125 6.875 C13.54019531 6.89304687 12.26789063 6.91109375 10.95703125 6.9296875 C9.98121094 6.95289063 9.00539063 6.97609375 8 7 Z " fill="#000000" transform="translate(1834,635)"/>
</svg>
