<?xml version="1.0" standalone="no"?>
<!DOCTYPE svg PUBLIC "-//W3C//DTD SVG 20010904//EN"
 "http://www.w3.org/TR/2001/REC-SVG-20010904/DTD/svg10.dtd">
<svg version="1.0" xmlns="http://www.w3.org/2000/svg"
 width="903.000000pt" height="381.000000pt" viewBox="0 0 903.000000 381.000000"
 preserveAspectRatio="xMidYMid meet">

<g transform="translate(0.000000,381.000000) scale(0.100000,-0.100000)"
fill="#000000" stroke="none">
<path d="M6060 3184 c-30 -2 -136 -8 -235 -14 -926 -55 -2040 -268 -2905 -553
-162 -54 -394 -138 -481 -175 l-43 -19 52 -6 c113 -13 182 -83 182 -184 l0
-53 -95 0 -95 0 0 35 c0 42 -29 75 -66 75 -37 0 -61 -16 -68 -45 -11 -45 16
-77 111 -129 196 -109 240 -163 231 -284 -11 -153 -89 -212 -277 -212 -80 0
-105 4 -146 24 -86 40 -125 104 -125 209 l0 47 105 0 105 0 0 -53 c0 -70 23
-93 92 -88 28 2 48 31 48 71 0 31 -6 44 -35 69 -20 17 -55 40 -78 52 -101 52
-175 108 -202 153 -24 42 -27 54 -23 121 2 41 2 75 -1 75 -13 0 -323 -167
-409 -221 -636 -397 -721 -778 -227 -1014 216 -103 505 -169 935 -212 218 -22
909 -25 1185 -5 1233 89 2551 377 3450 756 l60 25 -41 1 c-99 1 -201 57 -230
127 -11 24 -14 92 -14 265 0 259 6 288 68 340 48 41 97 53 207 53 93 0 104 -2
155 -31 69 -39 100 -92 100 -171 l0 -53 -95 0 -95 0 0 35 c0 43 -37 85 -75 85
-14 0 -37 -11 -50 -25 -25 -24 -25 -24 -25 -235 0 -197 1 -211 20 -230 27 -27
83 -27 110 0 16 16 20 33 20 95 l0 75 -40 0 -40 0 0 55 0 55 140 0 140 0 0
-92 c0 -94 -12 -197 -26 -232 -5 -14 29 0 137 55 947 491 1056 988 269 1233
-201 62 -407 100 -720 132 -146 14 -822 27 -960 18z m-1151 -775 c28 -6 65
-20 83 -32 42 -28 78 -99 78 -154 l0 -43 -95 0 -95 0 0 30 c0 36 -39 80 -70
80 -11 0 -32 -11 -46 -26 -48 -47 -18 -93 101 -155 102 -54 170 -107 195 -152
30 -53 32 -163 5 -221 -36 -75 -124 -116 -250 -116 -175 0 -265 71 -268 214
l-2 61 103 3 102 3 0 -52 c0 -65 19 -89 68 -89 47 0 72 24 72 70 0 45 -27 73
-130 131 -166 93 -210 145 -210 247 0 62 13 98 48 135 64 67 185 93 311 66z
m-1597 -379 c37 -201 67 -371 68 -378 0 -10 -24 -12 -102 -10 l-103 3 -37 250
c-20 138 -42 288 -49 335 -7 47 -13 81 -15 75 -2 -5 -24 -147 -49 -315 -25
-168 -47 -315 -50 -327 -5 -22 -10 -23 -105 -23 -73 0 -100 3 -100 13 0 6 30
177 67 380 l67 367 170 -2 170 -3 68 -365z m554 295 c6 -38 26 -163 44 -277
19 -115 35 -207 36 -205 1 1 21 117 43 257 23 140 43 265 46 278 5 22 8 22
159 22 l153 0 6 -217 c4 -120 7 -291 7 -381 l0 -163 -92 3 -93 3 -3 330 -4
330 -62 -330 -62 -330 -97 -3 c-93 -3 -97 -2 -102 20 -3 13 -30 158 -60 323
-31 165 -57 305 -59 310 -3 6 -5 -140 -5 -322 l-1 -333 -95 0 -95 0 0 108 c0
60 3 231 7 381 l6 271 156 -2 155 -3 12 -70z m1584 -222 c0 -164 4 -303 8
-309 25 -38 103 -40 122 -4 6 11 10 138 10 314 l0 296 100 0 100 0 0 -287 c0
-162 -5 -308 -11 -333 -14 -60 -49 -103 -106 -131 -40 -20 -64 -24 -148 -24
-138 0 -205 29 -248 108 -21 40 -22 54 -25 355 l-4 312 101 0 101 0 0 -297z
m907 13 c45 -153 83 -280 85 -281 2 -2 2 125 0 281 l-3 284 95 0 96 0 0 -375
0 -375 -138 0 -137 0 -84 278 c-46 152 -88 286 -93 297 -4 11 -5 -112 -2 -277
l6 -298 -96 0 -96 0 0 375 0 376 143 -3 142 -3 82 -279z"/>
</g>
</svg>
